<?xml version="1.0" encoding="UTF-8"?>
<svg width="131px" height="58px" viewBox="0 0 131 58" version="1.1" xmlns="http://www.w3.org/2000/svg" xmlns:xlink="http://www.w3.org/1999/xlink">
    <!-- Generator: Sketch 50.2 (55047) - http://www.bohemiancoding.com/sketch -->
    <title>logo</title>
    <desc>Created with Sketch.</desc>
    <defs>
        <polygon id="path-1" points="0.327393801 0.6837 10.057 0.6837 10.057 11.1097 0.327393801 11.1097"></polygon>
        <polygon id="path-3" points="0 0.636939402 9.49428889 0.636939402 9.49428889 7.15677223 0 7.15677223"></polygon>
    </defs>
    <g id="home" stroke="none" stroke-width="1" fill="none" fill-rule="evenodd">
        <g id="Desktop-HD" transform="translate(-165.000000, -18.000000)">
            <g id="hero">
                <g id="logo" transform="translate(165.000000, 18.000000)">
                    <path d="M52.5265,22.0771 C52.7535,22.4911 53.0135,23.0021 53.3095,23.6111 C53.6045,24.2201 53.9125,24.8791 54.2335,25.5871 C54.5535,26.2971 54.8715,27.0211 55.1855,27.7621 C55.4995,28.5021 55.7955,29.1981 56.0715,29.8501 C56.3485,29.1981 56.6445,28.5021 56.9595,27.7621 C57.2745,27.0211 57.5915,26.2971 57.9125,25.5881 C58.2345,24.8801 58.5425,24.2211 58.8385,23.6121 C59.1335,23.0041 59.3955,22.4931 59.6215,22.0791 L62.2945,22.0791 C62.4195,22.9451 62.5355,23.9141 62.6415,24.9871 C62.7475,26.0601 62.8415,27.1771 62.9225,28.3371 C63.0045,29.4981 63.0785,30.6621 63.1475,31.8281 C63.2165,32.9951 63.2755,34.0941 63.3255,35.1221 L60.4645,35.1211 C60.4275,33.8541 60.3775,32.4731 60.3155,30.9811 C60.2535,29.4881 60.1595,27.9821 60.0345,26.4641 C59.8075,26.9911 59.5555,27.5741 59.2785,28.2141 C59.0015,28.8531 58.7275,29.4931 58.4575,30.1341 C58.1865,30.7731 57.9245,31.3851 57.6725,31.9681 C57.4215,32.5521 57.2075,33.0501 57.0305,33.4641 L54.9795,33.4641 C54.8035,33.0501 54.5895,32.5511 54.3385,31.9681 C54.0865,31.3841 53.8255,30.7721 53.5545,30.1321 C53.2845,29.4921 53.0105,28.8511 52.7345,28.2121 C52.4575,27.5721 52.2055,26.9891 51.9795,26.4621 C51.8535,27.9791 51.7585,29.4851 51.6955,30.9781 C51.6325,32.4721 51.5825,33.8511 51.5445,35.1191 L48.6835,35.1181 C48.7345,34.0891 48.7945,32.9911 48.8635,31.8241 C48.9325,30.6581 49.0075,29.4941 49.0895,28.3331 C49.1725,27.1731 49.2665,26.0571 49.3735,24.9831 C49.4805,23.9111 49.5965,22.9411 49.7225,22.0761 L52.5265,22.0771 Z" id="Fill-1" fill="#FFFFFF"></path>
                    <path d="M69.4801,33.166 C69.7561,33.167 70.0191,33.16 70.2711,33.147 C70.5211,33.136 70.7221,33.116 70.8731,33.092 L70.8741,30.965 C70.7601,30.939 70.5911,30.915 70.3651,30.89 C70.1391,30.864 69.9331,30.852 69.7441,30.852 C69.4801,30.852 69.2331,30.867 69.0011,30.898 C68.7691,30.93 68.5641,30.989 68.3891,31.077 C68.2131,31.165 68.0751,31.284 67.9751,31.435 C67.8741,31.585 67.8241,31.773 67.8241,31.999 C67.8241,32.438 67.9711,32.742 68.2671,32.912 C68.5611,33.081 68.9651,33.166 69.4801,33.166 M69.2571,24.961 C70.0841,24.961 70.7741,25.056 71.3271,25.244 C71.8781,25.433 72.3211,25.702 72.6531,26.054 C72.9851,26.405 73.2201,26.831 73.3581,27.333 C73.4961,27.835 73.5651,28.394 73.5651,29.009 L73.5631,34.843 C73.1621,34.931 72.6041,35.033 71.8891,35.152 C71.1731,35.271 70.3081,35.331 69.2911,35.331 C68.6511,35.33 68.0711,35.274 67.5501,35.161 C67.0301,35.048 66.5811,34.862 66.2051,34.605 C65.8291,34.348 65.5401,34.013 65.3401,33.598 C65.1391,33.184 65.0391,32.676 65.0391,32.073 C65.0391,31.497 65.1551,31.008 65.3881,30.605 C65.6201,30.205 65.9301,29.885 66.3191,29.646 C66.7081,29.408 67.1541,29.235 67.6561,29.129 C68.1571,29.022 68.6781,28.97 69.2181,28.97 C69.5811,28.97 69.9051,28.985 70.1871,29.017 C70.4691,29.048 70.6981,29.09 70.8741,29.14 L70.8741,28.876 C70.8741,28.399 70.7301,28.017 70.4411,27.728 C70.1531,27.439 69.6511,27.295 68.9361,27.295 C68.4591,27.295 67.9881,27.329 67.5241,27.397 C67.0601,27.467 66.6591,27.563 66.3201,27.689 L65.9631,25.431 C66.1261,25.381 66.3301,25.327 66.5751,25.27 C66.8191,25.215 67.0861,25.164 67.3741,25.12 C67.6631,25.077 67.9671,25.039 68.2871,25.008 C68.6071,24.977 68.9301,24.961 69.2571,24.961" id="Fill-3" fill="#FFFFFF"></path>
                    <path d="M82.3913,30.2529 C82.3913,29.3879 82.1973,28.6939 81.8083,28.1729 C81.4193,27.6519 80.8423,27.3919 80.0773,27.3919 C79.8263,27.3919 79.5943,27.4009 79.3813,27.4199 C79.1673,27.4389 78.9923,27.4609 78.8543,27.4849 L78.8523,32.5479 C79.0283,32.6609 79.2573,32.7549 79.5393,32.8299 C79.8223,32.9059 80.1073,32.9429 80.3953,32.9429 C81.7253,32.9439 82.3913,32.0469 82.3913,30.2529 M85.2523,30.1789 C85.2523,30.9439 85.1583,31.6399 84.9693,32.2679 C84.7813,32.8949 84.5043,33.4339 84.1413,33.8859 C83.7763,34.3369 83.3253,34.6889 82.7853,34.9399 C82.2453,35.1899 81.6243,35.3149 80.9223,35.3149 C80.5333,35.3149 80.1693,35.2769 79.8303,35.2019 C79.4923,35.1269 79.1653,35.0199 78.8513,34.8819 L78.8503,38.6079 L76.0463,38.6069 L76.0503,25.5649 C76.3013,25.4899 76.5893,25.4179 76.9163,25.3489 C77.2423,25.2799 77.5843,25.2209 77.9423,25.1709 C78.2993,25.1199 78.6633,25.0799 79.0333,25.0489 C79.4033,25.0179 79.7583,25.0019 80.0973,25.0019 C80.9123,25.0019 81.6403,25.1239 82.2803,25.3689 C82.9193,25.6139 83.4583,25.9589 83.8983,26.4039 C84.3373,26.8509 84.6723,27.3929 84.9043,28.0329 C85.1363,28.6729 85.2523,29.3879 85.2523,30.1789" id="Fill-5" fill="#FFFFFF"></path>
                    <path d="M91.1413,33.1728 C91.4173,33.1728 91.6813,33.1658 91.9323,33.1528 C92.1833,33.1418 92.3833,33.1228 92.5343,33.0978 L92.5353,30.9708 C92.4223,30.9458 92.2523,30.9208 92.0263,30.8958 C91.8013,30.8698 91.5943,30.8578 91.4053,30.8578 C91.1423,30.8578 90.8943,30.8728 90.6623,30.9038 C90.4303,30.9358 90.2263,30.9948 90.0503,31.0828 C89.8743,31.1708 89.7373,31.2898 89.6363,31.4408 C89.5363,31.5908 89.4853,31.7788 89.4853,32.0048 C89.4853,32.4438 89.6323,32.7488 89.9283,32.9178 C90.2223,33.0878 90.6263,33.1718 91.1413,33.1728 M90.9183,24.9668 C91.7453,24.9668 92.4353,25.0618 92.9883,25.2498 C93.5393,25.4388 93.9823,25.7078 94.3143,26.0598 C94.6463,26.4108 94.8823,26.8378 95.0193,27.3398 C95.1583,27.8418 95.2263,28.3998 95.2263,29.0148 L95.2243,34.8488 C94.8233,34.9368 94.2653,35.0398 93.5503,35.1578 C92.8343,35.2768 91.9693,35.3368 90.9533,35.3368 C90.3133,35.3368 89.7323,35.2798 89.2123,35.1668 C88.6913,35.0538 88.2433,34.8678 87.8663,34.6108 C87.4903,34.3538 87.2013,34.0188 87.0013,33.6048 C86.8003,33.1898 86.7003,32.6818 86.7003,32.0788 C86.7003,31.5028 86.8163,31.0138 87.0493,30.6118 C87.2813,30.2108 87.5913,29.8908 87.9803,29.6518 C88.3693,29.4138 88.8153,29.2418 89.3173,29.1348 C89.8183,29.0278 90.3393,28.9758 90.8793,28.9758 C91.2433,28.9758 91.5663,28.9908 91.8483,29.0228 C92.1303,29.0548 92.3593,29.0958 92.5353,29.1458 L92.5353,28.8818 C92.5353,28.4048 92.3913,28.0228 92.1023,27.7338 C91.8143,27.4448 91.3123,27.3008 90.5973,27.3008 C90.1203,27.3008 89.6493,27.3348 89.1853,27.4028 C88.7213,27.4728 88.3203,27.5698 87.9813,27.6948 L87.6243,25.4368 C87.7873,25.3868 87.9913,25.3328 88.2363,25.2768 C88.4803,25.2208 88.7473,25.1698 89.0363,25.1258 C89.3243,25.0828 89.6283,25.0448 89.9493,25.0138 C90.2683,24.9828 90.5913,24.9668 90.9183,24.9668" id="Fill-7" fill="#FFFFFF"></path>
                    <polygon id="Fill-9" fill="#FFFFFF" points="49.0553 53.3906 49.0583 40.3486 57.8663 40.3516 57.8663 42.8166 51.9933 42.8156 51.9933 45.3746 57.2063 45.3756 57.2053 47.7856 51.9923 47.7836 51.9923 50.9266 58.2963 50.9276 58.2953 53.3936"></polygon>
                    <path d="M62.381,48.3701 C62.381,49.2351 62.575,49.9321 62.964,50.4591 C63.352,50.9861 63.929,51.2501 64.695,51.2501 C64.946,51.2501 65.177,51.2401 65.391,51.2221 C65.605,51.2031 65.78,51.1821 65.919,51.1561 L65.92,46.0561 C65.744,45.9431 65.515,45.8491 65.233,45.7731 C64.951,45.6981 64.665,45.6601 64.377,45.6601 C63.047,45.6601 62.381,46.5631 62.381,48.3701 Z M68.722,53.0761 C68.471,53.1511 68.182,53.2241 67.856,53.2931 C67.529,53.3621 67.188,53.4211 66.831,53.4721 C66.473,53.5211 66.109,53.5621 65.739,53.5941 C65.368,53.6241 65.014,53.6411 64.675,53.6401 C63.86,53.6401 63.132,53.5201 62.492,53.2821 C61.853,53.0431 61.313,52.7011 60.874,52.2561 C60.435,51.8101 60.1,51.2701 59.868,50.6371 C59.636,50.0041 59.52,49.2911 59.52,48.5011 C59.521,47.6981 59.621,46.9741 59.822,46.3271 C60.023,45.6821 60.312,45.1321 60.688,44.6811 C61.065,44.2291 61.526,43.8841 62.072,43.6451 C62.618,43.4081 63.242,43.2891 63.944,43.2891 C64.333,43.2891 64.681,43.3271 64.989,43.4021 C65.297,43.4771 65.607,43.5841 65.921,43.7231 L65.922,39.2431 L68.726,38.7921 L68.722,53.0761 Z" id="Fill-11" fill="#FFFFFF"></path>
                    <path d="M79.7501,53.0605 C79.2731,53.1995 78.6581,53.3275 77.9061,53.4465 C77.1531,53.5655 76.3621,53.6235 75.5341,53.6235 C74.6941,53.6235 73.9941,53.5105 73.4361,53.2855 C72.8771,53.0585 72.4351,52.7425 72.1091,52.3335 C71.7831,51.9265 71.5511,51.4405 71.4141,50.8745 C71.2751,50.3105 71.2071,49.6895 71.2071,49.0115 L71.2081,43.4975 L74.0131,43.4985 L74.0111,48.6735 C74.0111,49.5775 74.1301,50.2305 74.3681,50.6315 C74.6061,51.0335 75.0521,51.2345 75.7051,51.2345 C75.9051,51.2345 76.1181,51.2245 76.3441,51.2065 C76.5701,51.1875 76.7711,51.1655 76.9461,51.1405 L76.9491,43.4985 L79.7531,43.4995 L79.7501,53.0605 Z" id="Fill-13" fill="#FFFFFF"></path>
                    <path d="M81.859,48.4502 C81.859,47.7352 81.975,47.0602 82.208,46.4282 C82.44,45.7942 82.776,45.2422 83.215,44.7712 C83.654,44.3012 84.188,43.9282 84.815,43.6522 C85.442,43.3772 86.158,43.2382 86.961,43.2392 C87.487,43.2392 87.97,43.2862 88.41,43.3802 C88.849,43.4742 89.276,43.6092 89.69,43.7852 L89.106,46.0242 C88.842,45.9242 88.553,45.8362 88.24,45.7612 C87.926,45.6852 87.575,45.6472 87.186,45.6472 C86.358,45.6472 85.74,45.9042 85.332,46.4192 C84.924,46.9332 84.72,47.6102 84.72,48.4512 C84.719,49.3422 84.91,50.0322 85.293,50.5212 C85.675,51.0112 86.343,51.2562 87.297,51.2562 C87.636,51.2562 88,51.2242 88.389,51.1622 C88.777,51.0992 89.135,51.0002 89.462,50.8612 L89.856,53.1572 C89.53,53.2962 89.122,53.4142 88.633,53.5142 C88.144,53.6152 87.604,53.6652 87.014,53.6652 C86.111,53.6652 85.333,53.5292 84.681,53.2602 C84.028,52.9902 83.492,52.6232 83.072,52.1582 C82.651,51.6942 82.344,51.1442 82.151,50.5122 C81.956,49.8782 81.859,49.1912 81.859,48.4502" id="Fill-15" fill="#FFFFFF"></path>
                    <path d="M94.9948,51.4463 C95.2708,51.4463 95.5348,51.4403 95.7858,51.4273 C96.0368,51.4163 96.2368,51.3963 96.3878,51.3713 L96.3888,49.2453 C96.2748,49.2193 96.1058,49.1953 95.8798,49.1693 C95.6548,49.1443 95.4478,49.1323 95.2588,49.1323 C94.9948,49.1323 94.7478,49.1473 94.5158,49.1783 C94.2838,49.2103 94.0788,49.2693 93.9038,49.3573 C93.7278,49.4453 93.5898,49.5643 93.4898,49.7153 C93.3898,49.8653 93.3388,50.0533 93.3388,50.2793 C93.3388,50.7183 93.4858,51.0223 93.7818,51.1923 C94.0758,51.3613 94.4798,51.4463 94.9948,51.4463 M94.7708,43.2413 C95.5988,43.2413 96.2888,43.3353 96.8418,43.5233 C97.3928,43.7123 97.8358,43.9823 98.1678,44.3333 C98.4998,44.6843 98.7348,45.1113 98.8728,45.6133 C99.0108,46.1153 99.0798,46.6743 99.0798,47.2883 L99.0778,53.1223 C98.6768,53.2103 98.1188,53.3133 97.4038,53.4323 C96.6878,53.5513 95.8228,53.6113 94.8068,53.6103 C94.1658,53.6103 93.5858,53.5533 93.0658,53.4403 C92.5448,53.3283 92.0968,53.1423 91.7198,52.8853 C91.3438,52.6283 91.0548,52.2923 90.8548,51.8783 C90.6538,51.4643 90.5538,50.9563 90.5538,50.3533 C90.5538,49.7763 90.6698,49.2873 90.9028,48.8853 C91.1348,48.4843 91.4448,48.1653 91.8338,47.9253 C92.2228,47.6883 92.6688,47.5153 93.1708,47.4093 C93.6718,47.3023 94.1928,47.2493 94.7328,47.2493 C95.0968,47.2503 95.4198,47.2653 95.7018,47.2973 C95.9838,47.3283 96.2128,47.3693 96.3888,47.4193 L96.3888,47.1563 C96.3888,46.6783 96.2448,46.2973 95.9558,46.0083 C95.6678,45.7183 95.1658,45.5753 94.4508,45.5743 C93.9738,45.5743 93.5028,45.6083 93.0388,45.6773 C92.5748,45.7463 92.1738,45.8433 91.8348,45.9683 L91.4778,43.7113 C91.6408,43.6603 91.8448,43.6073 92.0898,43.5503 C92.3338,43.4943 92.5998,43.4443 92.8898,43.4003 C93.1778,43.3563 93.4818,43.3193 93.8018,43.2883 C94.1218,43.2573 94.4448,43.2413 94.7708,43.2413" id="Fill-17" fill="#FFFFFF"></path>
                    <path d="M106.4176,54.1601 C106.8186,54.3601 107.0946,54.5981 107.2456,54.8751 C107.3956,55.1501 107.4716,55.4331 107.4706,55.7221 C107.4706,56.3241 107.2316,56.7821 106.7556,57.0961 C106.2786,57.4091 105.6516,57.5651 104.8736,57.5651 C104.5976,57.5651 104.3206,57.5431 104.0456,57.4991 C103.7696,57.4551 103.4936,57.3951 103.2176,57.3201 L103.5566,55.6831 C103.6446,55.7081 103.8046,55.7491 104.0366,55.8061 C104.2686,55.8621 104.4976,55.8901 104.7236,55.8901 C104.8986,55.8901 105.0526,55.8561 105.1846,55.7871 C105.3156,55.7181 105.3886,55.5961 105.4006,55.4201 C105.4136,55.2691 105.3546,55.1321 105.2226,55.0061 C105.0906,54.8811 104.8806,54.7861 104.5916,54.7231 L104.3666,54.6671 C104.4166,54.5041 104.4856,54.3191 104.5736,54.1121 C104.6606,53.9051 104.7496,53.7141 104.8366,53.5381 C104.1846,53.4121 103.6236,53.1961 103.1526,52.8891 C102.6826,52.5811 102.2936,52.2041 101.9856,51.7591 C101.6786,51.3131 101.4536,50.8081 101.3096,50.2441 C101.1646,49.6791 101.0926,49.0831 101.0936,48.4561 C101.0936,47.7401 101.2096,47.0661 101.4416,46.4321 C101.6736,45.8001 102.0096,45.2471 102.4496,44.7761 C102.8886,44.3061 103.4216,43.9331 104.0496,43.6571 C104.6766,43.3821 105.3916,43.2441 106.1946,43.2441 C106.7216,43.2441 107.2046,43.2911 107.6436,43.3861 C108.0826,43.4791 108.5096,43.6151 108.9236,43.7911 L108.3396,46.0301 C108.0756,45.9301 107.7876,45.8421 107.4736,45.7661 C107.1596,45.6901 106.8086,45.6531 106.4196,45.6531 C105.5916,45.6521 104.9736,45.9101 104.5656,46.4241 C104.1576,46.9381 103.9536,47.6161 103.9536,48.4561 C103.9536,49.3481 104.1446,50.0371 104.5276,50.5261 C104.9096,51.0161 105.5776,51.2611 106.5316,51.2621 C106.8706,51.2621 107.2336,51.2301 107.6236,51.1681 C108.0116,51.1051 108.3696,51.0051 108.6956,50.8671 L109.0906,53.1631 C108.8016,53.2881 108.4476,53.3941 108.0266,53.4821 C107.6066,53.5701 107.1456,53.6261 106.6436,53.6511 C106.5936,53.7521 106.5496,53.8461 106.5116,53.9331 C106.4746,54.0211 106.4426,54.0971 106.4176,54.1601" id="Fill-19" fill="#FFFFFF"></path>
                    <path d="M114.2287,51.4521 C114.5047,51.4521 114.7687,51.4451 115.0197,51.4321 C115.2707,51.4211 115.4707,51.4021 115.6217,51.3771 L115.6227,49.2501 C115.5097,49.2251 115.3397,49.2001 115.1137,49.1751 C114.8887,49.1491 114.6817,49.1371 114.4927,49.1371 C114.2297,49.1371 113.9817,49.1521 113.7497,49.1831 C113.5177,49.2151 113.3137,49.2741 113.1377,49.3621 C112.9617,49.4501 112.8247,49.5691 112.7237,49.7201 C112.6237,49.8701 112.5727,50.0581 112.5727,50.2841 C112.5727,50.7231 112.7207,51.0281 113.0157,51.1971 C113.3097,51.3671 113.7137,51.4511 114.2287,51.4521 Z M117.6757,40.0661 C117.6007,40.2551 117.4977,40.4621 117.3657,40.6871 C117.2337,40.9131 117.0737,41.1241 116.8857,41.3171 C116.6967,41.5131 116.4837,41.6721 116.2457,41.7981 C116.0067,41.9231 115.7437,41.9851 115.4547,41.9851 C115.2287,41.9851 115.0187,41.9511 114.8247,41.8821 C114.6297,41.8131 114.4387,41.7371 114.2507,41.6561 C114.0617,41.5741 113.8747,41.4991 113.6857,41.4301 C113.4977,41.3611 113.3037,41.3261 113.1027,41.3261 C112.8517,41.3261 112.6447,41.4081 112.4817,41.5701 C112.3177,41.7331 112.1867,41.9221 112.0857,42.1361 L110.7127,41.2311 C110.7877,41.0431 110.8917,40.8361 111.0227,40.6101 C111.1547,40.3851 111.3147,40.1751 111.5027,39.9801 C111.6917,39.7861 111.9047,39.6261 112.1437,39.5001 C112.3817,39.3751 112.6447,39.3121 112.9337,39.3121 C113.1597,39.3121 113.3697,39.3481 113.5637,39.4161 C113.7587,39.4851 113.9497,39.5601 114.1377,39.6421 C114.3267,39.7231 114.5107,39.7991 114.6927,39.8681 C114.8747,39.9371 115.0727,39.9721 115.2857,39.9721 C115.5367,39.9721 115.7437,39.8901 115.9077,39.7271 C116.0697,39.5641 116.2017,39.3761 116.3027,39.1631 L117.6757,40.0661 Z M114.0057,43.2461 C114.8327,43.2461 115.5227,43.3411 116.0757,43.5291 C116.6267,43.7181 117.0697,43.9871 117.4017,44.3391 C117.7337,44.6901 117.9697,45.1171 118.1067,45.6191 C118.2457,46.1211 118.3137,46.6791 118.3137,47.2941 L118.3117,53.1281 C117.9107,53.2161 117.3527,53.3191 116.6377,53.4371 C115.9217,53.5561 115.0567,53.6161 114.0407,53.6161 C113.4007,53.6161 112.8197,53.5591 112.2997,53.4461 C111.7787,53.3331 111.3307,53.1471 110.9537,52.8901 C110.5777,52.6331 110.2887,52.2981 110.0887,51.8841 C109.8877,51.4691 109.7877,50.9611 109.7877,50.3581 C109.7887,49.7821 109.9037,49.2931 110.1367,48.8911 C110.3687,48.4901 110.6787,48.1701 111.0677,47.9311 C111.4567,47.6931 111.9027,47.5211 112.4047,47.4141 C112.9057,47.3071 113.4267,47.2551 113.9667,47.2551 C114.3307,47.2551 114.6537,47.2701 114.9357,47.3021 C115.2177,47.3341 115.4467,47.3751 115.6227,47.4251 L115.6227,47.1611 C115.6227,46.6841 115.4787,46.3021 115.1897,46.0131 C114.9017,45.7241 114.3997,45.5801 113.6847,45.5801 C113.2077,45.5801 112.7367,45.6141 112.2727,45.6821 C111.8087,45.7521 111.4077,45.8491 111.0687,45.9741 L110.7117,43.7161 C110.8747,43.6661 111.0787,43.6121 111.3237,43.5561 C111.5677,43.5001 111.8347,43.4491 112.1237,43.4051 C112.4117,43.3621 112.7157,43.3241 113.0367,43.2931 C113.3557,43.2621 113.6787,43.2461 114.0057,43.2461 Z" id="Fill-21" fill="#FFFFFF"></path>
                    <g id="Group-25" transform="translate(120.000000, 42.565600)">
                        <mask id="mask-2" fill="white">
                            <use xlink:href="#path-1"></use>
                        </mask>
                        <g id="Clip-24"></g>
                        <path d="M7.1964,5.8787 C7.1964,5.0127 7.0244,4.3317 6.6794,3.8367 C6.3344,3.3407 5.8424,3.0927 5.2024,3.0927 C4.5624,3.0927 4.0664,3.3407 3.7154,3.8357 C3.3634,4.3307 3.1884,5.0117 3.1874,5.8777 C3.1874,6.7427 3.3634,7.4307 3.7144,7.9387 C4.0654,8.4457 4.5614,8.7007 5.2004,8.7007 C5.8414,8.7007 6.3334,8.4467 6.6784,7.9397 C7.0234,7.4317 7.1964,6.7437 7.1964,5.8787 M10.0574,5.8797 C10.0564,6.6567 9.9434,7.3687 9.7174,8.0157 C9.4914,8.6607 9.1654,9.2137 8.7384,9.6707 C8.3124,10.1287 7.8004,10.4827 7.2044,10.7337 C6.6084,10.9847 5.9404,11.1097 5.2004,11.1097 C4.4724,11.1087 3.8104,10.9837 3.2144,10.7327 C2.6184,10.4827 2.1074,10.1277 1.6814,9.6687 C1.2544,9.2107 0.9224,8.6587 0.6844,8.0127 C0.4464,7.3657 0.3264,6.6547 0.3274,5.8767 C0.3274,5.0987 0.4494,4.3897 0.6954,3.7497 C0.9394,3.1097 1.2784,2.5647 1.7114,2.1127 C2.1444,1.6617 2.6584,1.3107 3.2554,1.0597 C3.8504,0.8087 4.5004,0.6837 5.2034,0.6837 C5.9184,0.6837 6.5734,0.8097 7.1694,1.0607 C7.7654,1.3117 8.2764,1.6627 8.7034,2.1147 C9.1294,2.5657 9.4624,3.1117 9.7004,3.7527 C9.9384,4.3927 10.0574,5.1017 10.0574,5.8797" id="Fill-23" fill="#FFFFFF" mask="url(#mask-2)"></path>
                    </g>
                    <path d="M29.8312,34.5976 C29.7272,34.5836 29.6372,34.5166 29.5952,34.4186 C29.5722,34.3676 29.5912,34.2856 29.6272,34.2436 C29.7822,34.0556 30.0352,33.8366 30.1052,33.4496 C30.1972,32.9376 29.8122,32.4956 29.2122,32.4186 C28.6252,32.3436 28.1272,32.6706 28.0872,33.1896 C28.0572,33.5826 28.2462,33.8586 28.3482,34.0776 C28.3752,34.1356 28.3742,34.2056 28.3352,34.2566 C28.2702,34.3396 28.1662,34.3826 28.0622,34.3686 L22.0592,33.5926 C21.8762,33.5696 21.7792,33.8016 21.9242,33.9146 L26.4522,37.4446 C26.5442,37.5166 26.6812,37.4846 26.7272,37.3766 C26.7672,37.2826 26.8192,37.1856 26.8872,37.0886 C27.1362,36.7346 27.5322,36.5316 27.9732,36.5326 C28.3202,36.5326 28.6752,36.6606 28.9732,36.8926 C29.3392,37.1786 29.5632,37.5646 29.6032,37.9776 C29.6382,38.3376 29.5252,38.6886 29.2872,38.9636 C29.2102,39.0526 29.1302,39.1246 29.0492,39.1876 C28.9562,39.2576 28.9572,39.3986 29.0502,39.4706 L30.7592,40.8026 C30.8402,40.8666 30.9572,40.8486 31.0172,40.7646 L34.7632,35.5026 C34.8422,35.3916 34.7742,35.2366 34.6392,35.2186 L29.8312,34.5976 Z" id="Fill-26" fill="#E2BD22"></path>
                    <g id="Group-30" transform="translate(0.000000, 12.565600)">
                        <mask id="mask-4" fill="white">
                            <use xlink:href="#path-3"></use>
                        </mask>
                        <g id="Clip-29"></g>
                        <path d="M5.9464,4.1482 C5.8794,4.0962 5.8404,4.0152 5.8424,3.9302 C5.8434,3.8572 5.8884,3.7912 5.9574,3.7652 C6.1854,3.6812 6.5164,3.6222 6.7744,3.3212 C7.1134,2.9252 7.0034,2.3512 6.5244,1.9802 C6.0564,1.6192 5.4614,1.6492 5.1644,2.0772 C4.9384,2.4022 4.9644,2.7382 4.9404,2.9792 C4.9334,3.0522 4.8814,3.1132 4.8094,3.1332 C4.7264,3.1562 4.6374,3.1392 4.5694,3.0862 L1.4894,0.6762 C1.3884,0.5962 1.2384,0.6442 1.2014,0.7682 L0.0384,4.6452 C-0.1206,5.1752 0.2254,5.7252 0.7734,5.8122 L9.2814,7.1542 C9.4694,7.1842 9.5724,6.9442 9.4224,6.8292 L5.9464,4.1482 Z" id="Fill-28" fill="#E2BD22" mask="url(#mask-4)"></path>
                    </g>
                    <path d="M44.5661,14.6416 C44.4721,14.0576 44.0171,13.6736 43.5081,13.7826 C43.1231,13.8646 42.9131,14.1236 42.7311,14.2846 C42.6831,14.3266 42.6161,14.3466 42.5571,14.3236 C42.4601,14.2866 42.3911,14.2016 42.3761,14.1006 L41.5891,9.1746 C41.5741,9.0806 41.4911,9.0146 41.3971,9.0206 L32.7681,9.5406 C32.6501,9.5476 32.5701,9.6626 32.6041,9.7746 C32.6291,9.8596 32.6491,9.9516 32.6601,10.0506 C32.7011,10.4106 32.5941,10.7616 32.3611,11.0396 C32.0961,11.3556 31.6831,11.5526 31.2291,11.5796 C31.1901,11.5826 31.1501,11.5836 31.1121,11.5836 C30.2701,11.5836 29.6291,11.0046 29.6211,10.2376 C29.6201,10.1356 29.6281,10.0406 29.6441,9.9536 C29.6641,9.8366 29.5701,9.7336 29.4531,9.7416 L21.8581,10.1996 C21.6711,10.2096 21.6191,10.4596 21.7861,10.5446 L32.0941,15.7866 C32.1971,15.8376 32.3241,15.7846 32.3531,15.6726 C32.3781,15.5746 32.4151,15.4726 32.4681,15.3686 C32.6901,14.9266 33.1291,14.6626 33.6441,14.6626 C33.9181,14.6626 34.1971,14.7396 34.4521,14.8846 C34.8481,15.1096 35.1191,15.4496 35.2171,15.8416 C35.3021,16.1836 35.2441,16.5376 35.0531,16.8366 C35.0181,16.8916 34.9811,16.9416 34.9431,16.9886 C34.8701,17.0776 34.8991,17.2116 35.0031,17.2646 L43.2561,21.4596 C43.3891,21.5286 43.5441,21.4156 43.5201,21.2686 L42.6541,15.8496 C42.6381,15.7466 42.6761,15.6436 42.7571,15.5766 C42.8071,15.5356 42.8771,15.5336 42.9371,15.5586 C43.1591,15.6536 43.4411,15.8336 43.8321,15.7906 C44.3491,15.7346 44.6621,15.2396 44.5661,14.6416" id="Fill-31" fill="#E2BD22"></path>
                    <path d="M40.3488,28.3906 C40.2968,28.4696 40.2098,28.5186 40.1148,28.5246 C40.0418,28.5286 39.9728,28.4876 39.9418,28.4196 C39.8418,28.1996 39.7588,27.8726 39.4398,27.6376 C39.0208,27.3286 38.4558,27.4786 38.1208,27.9836 C37.7938,28.4766 37.8678,29.0676 38.3148,29.3326 C38.6558,29.5356 38.9888,29.4856 39.2318,29.4916 C39.3058,29.4936 39.3688,29.5406 39.3938,29.6106 C39.4258,29.6996 39.4138,29.7966 39.3618,29.8746 L36.1738,34.6656 C36.0858,34.7976 36.1958,34.9716 36.3528,34.9496 L41.7838,34.1566 C42.2678,34.0856 42.6468,33.7026 42.7138,33.2176 L44.0448,23.4656 C44.0718,23.2736 43.8188,23.1776 43.7108,23.3396 L40.3488,28.3906 Z" id="Fill-33" fill="#E2BD22"></path>
                    <path d="M20.3141,22.8916 C20.2821,22.8946 20.2501,22.8956 20.2171,22.8956 C19.4741,22.8956 18.8981,22.2686 18.8801,21.4376 C18.8631,20.7106 19.2641,20.1006 19.9651,19.9246 C19.9811,19.9206 19.9981,19.9186 20.0141,19.9186 L20.2101,19.9186 C20.2221,19.9186 20.2341,19.9186 20.2471,19.9196 C20.3491,19.9216 20.4441,19.9356 20.5321,19.9536 C20.6461,19.9796 20.7521,19.8906 20.7501,19.7746 L20.5701,11.3856 C20.5671,11.2316 20.3831,11.1516 20.2691,11.2546 L16.4341,14.7026 C16.3471,14.7806 16.3551,14.9196 16.4521,14.9846 C16.5381,15.0406 16.6241,15.1096 16.7071,15.1946 C16.9611,15.4526 17.0941,15.7936 17.0821,16.1576 C17.0681,16.5696 16.8651,16.9786 16.5251,17.2816 C16.2131,17.5586 15.8351,17.7106 15.4601,17.7106 C15.0521,17.7106 14.6871,17.5366 14.4311,17.2176 C14.3611,17.1306 14.3051,17.0416 14.2601,16.9546 C14.2061,16.8506 14.0681,16.8286 13.9811,16.9066 L10.5401,19.9986 C10.4671,20.0646 10.4601,20.1746 10.5221,20.2486 L20.6991,32.4436 C20.8081,32.5746 21.0221,32.4946 21.0181,32.3236 L20.8191,23.0156 C20.8161,22.8996 20.7071,22.8156 20.5941,22.8446 C20.5081,22.8686 20.4151,22.8846 20.3141,22.8916" id="Fill-35" fill="#E2BD22"></path>
                    <path d="M25.1417,3.4941 C25.2457,2.8211 25.8327,2.3521 26.5707,2.3551 C26.6867,2.3551 26.8057,2.3681 26.9237,2.3921 C27.3787,2.4861 27.7497,2.7321 27.9697,3.0841 C28.1617,3.3911 28.2157,3.7561 28.1247,4.1091 C28.0997,4.2021 28.0697,4.2861 28.0347,4.3641 C27.9857,4.4701 28.0497,4.5931 28.1627,4.6151 L35.0727,5.9781 C35.2567,6.0151 35.3677,5.7811 35.2237,5.6621 L28.7197,0.2901 C28.3937,0.0201 27.9547,-0.0689 27.5497,0.0541 L19.3287,2.5231 C19.1477,2.5781 19.1607,2.8381 19.3457,2.8741 L24.9097,3.9731 C25.0227,3.9951 25.1287,3.9071 25.1247,3.7911 C25.1207,3.6981 25.1257,3.5991 25.1417,3.4941" id="Fill-37" fill="#E2BD22"></path>
                    <path d="M27.2008,42.708 C27.0878,42.736 27.0298,42.861 27.0828,42.965 C27.1278,43.049 27.1668,43.143 27.1978,43.246 C27.3008,43.594 27.2588,43.958 27.0778,44.272 C26.8728,44.631 26.5018,44.897 26.0588,45.005 C25.9168,45.04 25.7728,45.058 25.6318,45.058 C24.9228,45.058 24.3638,44.62 24.2388,43.969 C24.2188,43.862 24.2108,43.762 24.2108,43.667 C24.2108,43.551 24.1008,43.466 23.9878,43.494 L21.4318,44.119 C21.2938,44.152 21.2468,44.326 21.3498,44.425 L24.8108,47.743 C25.2078,48.124 25.8508,48.064 26.1708,47.617 L29.9258,42.369 C30.0228,42.233 29.8988,42.049 29.7358,42.089 L27.2008,42.708 Z" id="Fill-39" fill="#E2BD22"></path>
                    <path d="M21.2418,6.3476 C21.0468,5.7886 20.5328,5.4896 20.0498,5.6856 C19.6848,5.8326 19.5228,6.1256 19.3718,6.3156 C19.3338,6.3636 19.2728,6.3956 19.2118,6.3846 C19.1128,6.3686 19.0328,6.2986 18.9998,6.2056 L17.2458,1.2526 C17.0378,0.6636 16.3138,0.4516 15.8208,0.8356 L11.7538,4.0006 C11.6598,4.0746 11.6588,4.2166 11.7528,4.2876 C11.8368,4.3516 11.9198,4.4266 11.9988,4.5186 C12.2348,4.7926 12.3458,5.1426 12.3088,5.5036 C12.2678,5.9136 12.0388,6.3096 11.6788,6.5886 C11.3748,6.8256 11.0298,6.9506 10.6798,6.9506 C10.2398,6.9506 9.8438,6.7446 9.5938,6.3866 C9.5238,6.2866 9.4708,6.1876 9.4308,6.0896 C9.3848,5.9806 9.2458,5.9466 9.1518,6.0196 L2.4188,11.2426 C2.2728,11.3556 2.3678,11.5896 2.5518,11.5686 L8.9878,10.8266 C9.1038,10.8126 9.1788,10.6946 9.1378,10.5836 C9.1078,10.4986 9.0818,10.4066 9.0658,10.3056 C9.0058,9.9486 9.0938,9.5916 9.3118,9.3016 C9.5598,8.9726 9.9608,8.7536 10.4128,8.7016 C10.4848,8.6936 10.5568,8.6896 10.6268,8.6896 C11.4278,8.6896 12.0438,9.2226 12.0908,9.9566 C12.0968,10.0586 12.0938,10.1546 12.0828,10.2436 C12.0688,10.3616 12.1678,10.4586 12.2848,10.4466 L19.9358,9.5636 C20.0528,9.5496 20.1268,9.4316 20.0878,9.3216 L19.5738,7.8476 C19.5418,7.7576 19.5598,7.6566 19.6238,7.5826 C19.6658,7.5346 19.7358,7.5196 19.7988,7.5346 C20.0338,7.5896 20.3418,7.7166 20.7198,7.6066 C21.2188,7.4606 21.4408,6.9186 21.2418,6.3476" id="Fill-41" fill="#E2BD22"></path>
                    <path d="M28.0519,39.5517 C27.9699,39.4877 27.9269,39.3837 27.9399,39.2787 C27.9479,39.2147 27.9979,39.1637 28.0589,39.1427 C28.2869,39.0607 28.6159,39.0017 28.8739,38.7037 C29.2149,38.3107 29.1079,37.7357 28.6309,37.3627 C28.1649,36.9977 27.5699,37.0257 27.2709,37.4507 C27.0449,37.7727 27.0659,38.1057 27.0419,38.3457 C27.0349,38.4127 26.9949,38.4757 26.9319,38.4977 C26.8349,38.5327 26.7269,38.5157 26.6469,38.4527 L25.0509,37.2037 C24.9649,37.1367 24.8399,37.1587 24.7819,37.2517 L21.1629,43.1197 C21.0769,43.2597 21.2029,43.4327 21.3619,43.3947 L24.5749,42.6137 C24.6679,42.5907 24.7649,42.6137 24.8379,42.6747 C24.8939,42.7217 24.9179,42.7977 24.8939,42.8677 C24.8179,43.0987 24.6569,43.3947 24.7309,43.7837 C24.8279,44.2947 25.3449,44.5687 25.9339,44.4257 C26.5089,44.2847 26.8569,43.8017 26.7079,43.3037 C26.5949,42.9217 26.3159,42.7337 26.1419,42.5637 C26.0899,42.5127 26.0759,42.4337 26.1049,42.3657 C26.1419,42.2797 26.2179,42.2147 26.3099,42.1927 L29.8479,41.3327 C29.9969,41.2967 30.0379,41.1057 29.9179,41.0107 L28.0519,39.5517 Z" id="Fill-43" fill="#00AA61"></path>
                    <path d="M6.2931,2.5996 L5.5251,7.5206 C5.4991,7.6846 5.6871,7.7946 5.8181,7.6936 L9.2991,4.9896 C9.3741,4.9306 9.4721,4.9126 9.5631,4.9376 C9.6341,4.9566 9.6871,5.0176 9.6941,5.0906 C9.7181,5.3316 9.6931,5.6676 9.9201,5.9936 C10.2181,6.4186 10.8021,6.4566 11.2801,6.0846 C11.7481,5.7216 11.8671,5.1386 11.5271,4.7446 C11.2681,4.4446 10.9371,4.3846 10.7091,4.3016 C10.6401,4.2766 10.5941,4.2106 10.5921,4.1366 C10.5901,4.0416 10.6331,3.9526 10.7081,3.8936 L13.8111,1.4746 C13.9561,1.3616 13.8621,1.1286 13.6791,1.1476 L7.1031,1.8296 C6.6891,1.8726 6.3571,2.1886 6.2931,2.5996" id="Fill-45" fill="#00AA61"></path>
                    <path d="M15.4064,15.0664 C15.3444,15.0484 15.2914,15.0014 15.2794,14.9374 C15.2594,14.8334 15.2964,14.7274 15.3744,14.6584 L19.8574,10.6434 C19.9894,10.5244 19.8914,10.3054 19.7144,10.3254 L11.6074,11.2534 C11.5034,11.2654 11.4004,11.2224 11.3354,11.1384 C11.2964,11.0874 11.2964,11.0154 11.3244,10.9574 C11.4294,10.7394 11.6224,10.4654 11.5964,10.0734 C11.5634,9.5534 11.0834,9.2184 10.4824,9.2884 C9.8944,9.3564 9.4894,9.7934 9.5754,10.3064 C9.6404,10.6954 9.8894,10.9174 10.0424,11.1054 C10.0824,11.1554 10.0994,11.2244 10.0724,11.2844 C10.0294,11.3804 9.9384,11.4464 9.8344,11.4584 L2.0464,12.3634 C1.8834,12.3814 1.8254,12.5884 1.9554,12.6894 L4.3704,14.5654 C4.4624,14.6364 4.5964,14.6054 4.6464,14.5014 C4.6834,14.4254 4.7274,14.3484 4.7824,14.2724 C5.0314,13.9234 5.4254,13.7234 5.8614,13.7234 C6.2124,13.7234 6.5704,13.8544 6.8694,14.0924 C7.2334,14.3814 7.4544,14.7684 7.4914,15.1814 C7.5234,15.5434 7.4084,15.8924 7.1674,16.1664 C7.1124,16.2294 7.0544,16.2844 6.9974,16.3324 C6.9094,16.4054 6.9164,16.5434 7.0074,16.6134 L10.2174,19.1054 C10.2874,19.1604 10.3864,19.1564 10.4524,19.0964 L14.0404,15.8434 C14.1164,15.7764 14.2234,15.7524 14.3234,15.7804 C14.3874,15.7984 14.4314,15.8594 14.4424,15.9254 C14.4814,16.1644 14.4814,16.4984 14.7274,16.8044 C15.0524,17.2104 15.6374,17.2094 16.0904,16.8064 C16.5324,16.4134 16.6124,15.8234 16.2474,15.4524 C15.9714,15.1714 15.6394,15.1334 15.4064,15.0664" id="Fill-47" fill="#00AA61"></path>
                    <path d="M42.3527,9.3613 L42.9697,13.2163 C42.9887,13.3313 43.1087,13.3993 43.2157,13.3543 C43.3017,13.3183 43.3947,13.2883 43.4977,13.2663 C43.5897,13.2463 43.6837,13.2363 43.7757,13.2363 C44.4677,13.2373 45.0377,13.7723 45.1607,14.5403 C45.2347,14.9993 45.1377,15.4333 44.8857,15.7633 C44.6657,16.0513 44.3457,16.2323 43.9827,16.2723 C43.9247,16.2793 43.8667,16.2823 43.8087,16.2823 C43.7677,16.2823 43.7277,16.2803 43.6897,16.2773 C43.5707,16.2663 43.4747,16.3673 43.4937,16.4843 L44.2387,21.1433 C44.2627,21.2923 44.4467,21.3483 44.5487,21.2393 L50.4817,14.9273 C50.8827,14.5013 50.7787,13.8123 50.2697,13.5233 L42.6207,9.1753 C42.4887,9.1003 42.3287,9.2123 42.3527,9.3613" id="Fill-49" fill="#00AA61"></path>
                    <path d="M43.0265,22.4296 L33.5985,26.8876 C33.5135,26.9276 33.4155,26.9246 33.3325,26.8806 C33.2665,26.8456 33.2285,26.7756 33.2365,26.7016 C33.2655,26.4606 33.3625,26.1386 33.2125,25.7726 C33.0135,25.2916 32.4525,25.1276 31.9045,25.3866 C31.3695,25.6396 31.1265,26.1826 31.3725,26.6416 C31.5605,26.9926 31.8715,27.1206 32.0755,27.2516 C32.1375,27.2916 32.1665,27.3666 32.1525,27.4376 C32.1335,27.5306 32.0725,27.6096 31.9865,27.6496 L21.8725,32.4326 C21.7095,32.5096 21.7465,32.7506 21.9245,32.7756 L27.4025,33.5116 C27.5185,33.5276 27.6185,33.4316 27.6055,33.3156 C27.5955,33.2236 27.5925,33.1256 27.6015,33.0216 C27.6575,32.2976 28.2725,31.7736 29.0645,31.7736 C29.1405,31.7736 29.2185,31.7786 29.2955,31.7886 C29.7555,31.8476 30.1455,32.0656 30.3905,32.3996 C30.6045,32.6926 30.6865,33.0506 30.6215,33.4096 C30.6015,33.5196 30.5715,33.6196 30.5365,33.7106 C30.4935,33.8196 30.5655,33.9376 30.6805,33.9526 L35.2275,34.5646 C35.2965,34.5746 35.3635,34.5426 35.4015,34.4856 L38.3245,30.0966 C38.3885,29.9996 38.3475,29.8676 38.2375,29.8276 C38.1505,29.7966 38.0605,29.7556 37.9705,29.7016 C37.6595,29.5176 37.4435,29.2206 37.3625,28.8676 C37.2705,28.4646 37.3625,28.0176 37.6135,27.6376 C37.9185,27.1786 38.3905,26.9056 38.8765,26.9056 C39.1565,26.9056 39.4255,26.9946 39.6545,27.1646 C39.7405,27.2286 39.8145,27.2956 39.8785,27.3656 C39.9565,27.4506 40.0945,27.4386 40.1595,27.3416 L43.2545,22.6936 C43.3555,22.5406 43.1925,22.3516 43.0265,22.4296" id="Fill-51" fill="#00AA61"></path>
                    <path d="M31.7277,9.2002 C31.6897,9.1472 31.6767,9.0782 31.7067,9.0202 C31.7547,8.9272 31.8487,8.8672 31.9517,8.8602 L41.2067,8.3032 C41.4207,8.2892 41.4417,7.9812 41.2307,7.9402 L27.2747,5.1812 C27.1717,5.1612 27.0867,5.0892 27.0507,4.9882 C27.0287,4.9282 27.0517,4.8602 27.0957,4.8132 C27.2627,4.6372 27.5287,4.4362 27.6247,4.0542 C27.7517,3.5502 27.3967,3.0842 26.8037,2.9672 C26.2227,2.8512 25.7047,3.1442 25.6287,3.6592 C25.5727,4.0492 25.7427,4.3362 25.8297,4.5622 C25.8527,4.6232 25.8477,4.6942 25.8037,4.7422 C25.7327,4.8202 25.6257,4.8552 25.5237,4.8352 L19.1337,3.5722 C18.9947,3.5442 18.8787,3.6792 18.9257,3.8122 L19.4277,5.2302 C19.4677,5.3432 19.6007,5.3872 19.7007,5.3232 C19.7747,5.2752 19.8657,5.2222 19.9647,5.1792 C20.1227,5.1102 20.2907,5.0812 20.4587,5.0812 C21.0647,5.0822 21.6007,5.4982 21.8267,6.1412 C21.9797,6.5802 21.9597,7.0252 21.7697,7.3942 C21.6047,7.7172 21.3197,7.9482 20.9707,8.0542 C20.8767,8.0822 20.7757,8.0972 20.6877,8.1062 C20.5687,8.1182 20.4927,8.2362 20.5327,8.3492 L20.9067,9.4062 C20.9337,9.4832 21.0087,9.5322 21.0907,9.5272 L30.1747,8.9702 C30.2787,8.9632 30.3787,9.0122 30.4377,9.0982 C30.4747,9.1522 30.4707,9.2222 30.4387,9.2792 C30.3227,9.4922 30.1157,9.7542 30.1207,10.1472 C30.1257,10.6682 30.5867,11.0282 31.1917,10.9912 C31.7817,10.9552 32.2087,10.5402 32.1507,10.0222 C32.1067,9.6322 31.8697,9.3962 31.7277,9.2002" id="Fill-53" fill="#00AA61"></path>
                </g>
            </g>
        </g>
    </g>
</svg>