<?xml version="1.0" encoding="utf-8"?>
<!-- Generator: Adobe Illustrator 21.1.0, SVG Export Plug-In . SVG Version: 6.00 Build 0)  -->
<svg version="1.1" id="Layer_1" xmlns="http://www.w3.org/2000/svg" xmlns:xlink="http://www.w3.org/1999/xlink" x="0px" y="0px"
	 viewBox="0 0 36 36" style="enable-background:new 0 0 36 36;" xml:space="preserve">
<style type="text/css">
	.st0{fill:#FFFFFF;}
	.st1{clip-path:url(#SVGID_2_);fill:#FFFFFF;}
</style>
<path id="b" class="st0" d="M9,21h14c0.6,0,1,0.4,1,1s-0.4,1-1,1H9c-0.6,0-1-0.4-1-1S8.4,21,9,21z M9,16h18c0.6,0,1,0.4,1,1
	s-0.4,1-1,1H9c-0.6,0-1-0.4-1-1S8.4,16,9,16z M9,11h18c0.6,0,1,0.4,1,1s-0.4,1-1,1H9c-0.6,0-1-0.4-1-1S8.4,11,9,11z"/>
<g>
	<defs>
		<path id="SVGID_1_" d="M9,21h14c0.6,0,1,0.4,1,1s-0.4,1-1,1H9c-0.6,0-1-0.4-1-1S8.4,21,9,21z M9,16h18c0.6,0,1,0.4,1,1s-0.4,1-1,1
			H9c-0.6,0-1-0.4-1-1S8.4,16,9,16z M9,11h18c0.6,0,1,0.4,1,1s-0.4,1-1,1H9c-0.6,0-1-0.4-1-1S8.4,11,9,11z"/>
	</defs>
	<use xlink:href="#SVGID_1_"  style="overflow:visible;fill:#FFFFFF;"/>
	<clipPath id="SVGID_2_">
		<use xlink:href="#SVGID_1_"  style="overflow:visible;"/>
	</clipPath>
	<rect id="a" x="-1230" y="-7084" class="st1" width="1437" height="8244"/>
</g>
</svg>
